HIERARCHY
ROOT hip
{
  OFFSET 0 0 0
  CHANNELS 6 Xposition Yposition Zposition Zrotation Yrotation Xrotation
  JOINT abdomen
  {
    OFFSET 0 20.6881 -0.73152
    CHANNELS 3 Zrotation Xrotation Yrotation
    JOINT chest
    {
      OFFSET 0 11.7043 -0.48768
      CHANNELS 3 Zrotation Xrotation Yrotation
      JOINT neck
      {
        OFFSET 0 22.1894 -2.19456
        CHANNELS 3 Zrotation Xrotation Yrotation
        JOINT head
        {
          OFFSET -0.24384 7.07133 1.2192
          CHANNELS 3 Zrotation Xrotation Yrotation
          JOINT leftEye
          {
            OFFSET 4.14528 8.04674 8.04672
            CHANNELS 3 Zrotation Xrotation Yrotation
            End Site
            {
              OFFSET 1 0 0
            }
          }
          JOINT rightEye
          {
            OFFSET -3.6576 8.04674 8.04672
            CHANNELS 3 Zrotation Xrotation Yrotation
            End Site
            {
              OFFSET 1 0 0
            }
          }
        }
      }
      JOINT rCollar
      {
        OFFSET -2.68224 19.2634 -4.8768
        CHANNELS 3 Zrotation Xrotation Yrotation
        JOINT rShldr
        {
          OFFSET -8.77824 -1.95073 1.46304
          CHANNELS 3 Zrotation Xrotation Yrotation
          JOINT rForeArm
          {
            OFFSET -28.1742 -1.7115 0.48768
            CHANNELS 3 Zrotation Xrotation Yrotation
            JOINT rHand
            {
              OFFSET -22.5879 0.773209 7.07136
              CHANNELS 3 Zrotation Xrotation Yrotation
              JOINT rThumb1
              {
                OFFSET -1.2192 -0.487915 3.41376
                CHANNELS 3 Zrotation Xrotation Yrotation
                JOINT rThumb2
                {
                  OFFSET -3.37035 -0.52449 3.41376
                  CHANNELS 3 Zrotation Xrotation Yrotation
                  End Site
                  {
                    OFFSET -1.78271 -1.18214 1.43049
                  }
                }
              }
              JOINT rIndex1
              {
                OFFSET -7.75947 0.938293 5.60832
                CHANNELS 3 Zrotation Xrotation Yrotation
                JOINT rIndex2
                {
                  OFFSET -2.54057 -0.884171 1.56538
                  CHANNELS 3 Zrotation Xrotation Yrotation
                  End Site
                  {
                    OFFSET -1.62519 -0.234802 1.16502
                  }
                }
              }
              JOINT rMid1
              {
                OFFSET -8.24714 1.18213 3.41376
                CHANNELS 3 Zrotation Xrotation Yrotation
                JOINT rMid2
                {
                  OFFSET -3.10165 -0.590103 1.0647
                  CHANNELS 3 Zrotation Xrotation Yrotation
                  End Site
                  {
                    OFFSET -2.48547 -0.328903 0.83742
                  }
                }
              }
              JOINT rRing1
              {
                OFFSET -8.82822 0.546677 1.51678
                CHANNELS 3 Zrotation Xrotation Yrotation
                JOINT rRing2
                {
                  OFFSET -2.60934 -0.819778 -0.0198488
                  CHANNELS 3 Zrotation Xrotation Yrotation
                  End Site
                  {
                    OFFSET -2.33842 -0.294052 0.168128
                  }
                }
              }
              JOINT rPinky1
              {
                OFFSET -8.27202 -0.0477905 -0.4584
                CHANNELS 3 Zrotation Xrotation Yrotation
                JOINT rPinky2
                {
                  OFFSET -1.82734 -0.647385 -0.700984
                  CHANNELS 3 Zrotation Xrotation Yrotation
                  End Site
                  {
                    OFFSET -1.69225 -0.51767 -0.607171
                  }
                }
              }
            }
          }
        }
      }
      JOINT lCollar
      {
        OFFSET 2.68224 19.2634 -4.8768
        CHANNELS 3 Zrotation Xrotation Yrotation
        JOINT lShldr
        {
          OFFSET 8.77824 -1.95073 1.46304
          CHANNELS 3 Zrotation Xrotation Yrotation
          JOINT lForeArm
          {
            OFFSET 28.1742 -1.7115 0.48768
            CHANNELS 3 Zrotation Xrotation Yrotation
            JOINT lHand
            {
              OFFSET 22.5879 0.773209 7.07136
              CHANNELS 3 Zrotation Xrotation Yrotation
              JOINT lThumb1
              {
                OFFSET 1.2192 -0.487915 3.41376
                CHANNELS 3 Zrotation Xrotation Yrotation
                JOINT lThumb2
                {
                  OFFSET 3.37035 -0.52449 3.41376
                  CHANNELS 3 Zrotation Xrotation Yrotation
                  End Site
                  {
                    OFFSET 1.78271 -1.18214 1.43049
                  }
                }
              }
              JOINT lIndex1
              {
                OFFSET 7.75947 0.938293 5.60832
                CHANNELS 3 Zrotation Xrotation Yrotation
                JOINT lIndex2
                {
                  OFFSET 2.54057 -0.884171 1.56538
                  CHANNELS 3 Zrotation Xrotation Yrotation
                  End Site
                  {
                    OFFSET 1.62519 -0.234802 1.16502
                  }
                }
              }
              JOINT lMid1
              {
                OFFSET 8.24714 1.18213 3.41376
                CHANNELS 3 Zrotation Xrotation Yrotation
                JOINT lMid2
                {
                  OFFSET 3.10165 -0.590103 1.0647
                  CHANNELS 3 Zrotation Xrotation Yrotation
                  End Site
                  {
                    OFFSET 2.48547 -0.328903 0.83742
                  }
                }
              }
              JOINT lRing1
              {
                OFFSET 8.82822 0.546677 1.51678
                CHANNELS 3 Zrotation Xrotation Yrotation
                JOINT lRing2
                {
                  OFFSET 2.60934 -0.819778 -0.0198488
                  CHANNELS 3 Zrotation Xrotation Yrotation
                  End Site
                  {
                    OFFSET 2.33842 -0.294052 0.168128
                  }
                }
              }
              JOINT lPinky1
              {
                OFFSET 8.27202 -0.0477905 -0.4584
                CHANNELS 3 Zrotation Xrotation Yrotation
                JOINT lPinky2
                {
                  OFFSET 1.82734 -0.647385 -0.700984
                  CHANNELS 3 Zrotation Xrotation Yrotation
                  End Site
                  {
                    OFFSET 1.69225 -0.51767 -0.607171
                  }
                }
              }
            }
          }
        }
      }
    }
  }
  JOINT rButtock
  {
    OFFSET -8.77824 4.35084 1.2192
    CHANNELS 3 Zrotation Xrotation Yrotation
    JOINT rThigh
    {
      OFFSET 0 -1.70687 -2.19456
      CHANNELS 3 Zrotation Xrotation Yrotation
      JOINT rShin
      {
        OFFSET 0 -36.8199 0.73152
        CHANNELS 3 Zrotation Xrotation Yrotation
        JOINT rFoot
        {
          OFFSET 0.73152 -45.1104 -5.12064
          CHANNELS 3 Zrotation Xrotation Yrotation
          End Site
          {
            OFFSET -1.1221 -3.69964 12.103
          }
        }
      }
    }
  }
  JOINT lButtock
  {
    OFFSET 8.77824 4.35084 1.2192
    CHANNELS 3 Zrotation Xrotation Yrotation
    JOINT lThigh
    {
      OFFSET 0 -1.70687 -2.19456
      CHANNELS 3 Zrotation Xrotation Yrotation
      JOINT lShin
      {
        OFFSET 0 -36.8199 0.73152
        CHANNELS 3 Zrotation Xrotation Yrotation
        JOINT lFoot
        {
          OFFSET -0.73152 -45.1104 -5.12064
          CHANNELS 3 Zrotation Xrotation Yrotation
          End Site
          {
            OFFSET 1.1221 -3.69964 12.103
          }
        }
      }
    }
  }
}
MOTION
Frames:	4
Frame Time:	0.03333
0.048431381583213806 61.78579330444336 0.15747109428048134 -3.5972328186035156 4.624631404876709 5.428737163543701 -2.3403940200805664 15.067216873168945 3.771743059158325 2.745499849319458 -9.828291893005371 1.1097842454910278 -5.124612808227539 15.052149772644043 -3.5377066135406494 8.875296592712402 -24.122289657592773 -4.914316177368164 0.022243451327085495 0.07883714884519577 0.005540736950933933 0.018399778753519058 -0.025403352454304695 -0.031318098306655884 -0.018053604289889336 -0.03773972764611244 0.011501936241984367 42.127708435058594 35.6651725769043 18.5941219329834 -28.164873123168945 -29.25510597229004 65.38121795654297 -0.2337903529405594 -11.516822814941406 -2.049686908721924 0.024060726165771484 0.09443704783916473 0.0108222970739007 -0.029001135379076004 -0.00762602686882019 -0.09841877222061157 0.0770643875002861 -0.02213398925960064 -0.06159326061606407 7.7689385414123535 5.491204261779785 0.4130021631717682 -0.01133672147989273 0.07025916129350662 -0.03882753103971481 2.946428060531616 0.9934862852096558 0.05567207559943199 -0.017380351200699806 -0.0057319472543895245 0.002669734414666891 10.224376678466797 0.7416057586669922 -0.03068694844841957 0.02974589914083481 0.020194197073578835 0.05692613497376442 2.18129825592041 -0.7331748604774475 -0.22058965265750885 -0.11280983686447144 0.016041332855820656 0.05643777549266815 -49.05788040161133 37.601829528808594 -28.15209197998047 27.357141494750977 -27.10057258605957 -62.400611877441406 0.23426808416843414 -14.958163261413574 2.148244857788086 -0.03649099916219711 -0.056689806282520294 -0.03924190625548363 -0.0002429615706205368 -0.02038053423166275 0.04945041239261627 -0.02710503153502941 -0.05968174338340759 -0.05413973703980446 -7.7586445808410645 5.479677200317383 -0.40377500653266907 0.008369778282940388 0.05149311199784279 -0.026410020887851715 -2.9377357959747314 0.9651461243629456 -0.08365047723054886 -0.016374358907341957 0.041697487235069275 -0.04401877149939537 -10.276383399963379 0.7494012117385864 -0.06023276597261429 0.04606093466281891 0.015520201995968819 0.01058066263794899 -2.211303949356079 -0.7236207723617554 0.21369574964046478 -0.03369499370455742 -0.11514365673065186 -0.031603239476680756 -25.612104415893555 -40.41636657714844 -21.45895767211914 -1.5084515810012817 64.9095458984375 2.560152530670166 -3.664018154144287 -11.13082218170166 -9.793292045593262 -0.09806247800588608 0.13603872060775757 0.0038785722572356462 30.050792694091797 -39.65017318725586 22.980268478393555 1.458258032798767 65.92787170410156 -2.6761462688446045 4.203858852386475 -11.068902969360352 13.128232955932617
0.1503553707152605 63.170766830444336 0.06691813468933105 -4.281951427459717 3.3782646656036377 5.530970573425293 -2.283585786819458 14.334196090698242 3.5912790298461914 2.8592615127563477 -9.441813468933105 1.2899410724639893 -5.606593132019043 15.320877075195312 -4.006335258483887 8.788385391235352 -23.746397018432617 -6.142220973968506 0.14687089622020721 0.13475818932056427 -0.046981219202280045 0.000527101568877697 -0.05067048221826553 0.016660133376717567 0.0519583560526371 0.05525824800133705 -0.08514385670423508 45.59990692138672 37.54847717285156 17.366313934326172 -26.977535247802734 -27.778812408447266 64.83382415771484 -0.2764686942100525 -10.727686882019043 -1.5724550485610962 -0.0038865357637405396 -0.010070808231830597 0.19679006934165955 -0.026924561709165573 0.11595442146062851 -0.07050403207540512 0.044439490884542465 -0.15534818172454834 -0.09355293214321136 7.7684407234191895 5.403820991516113 0.5340901017189026 -0.06715331226587296 0.0020434530451893806 -0.05017032474279404 2.788391590118408 0.9408822059631348 0.17354558408260345 -0.034322451800107956 0.2342126965522766 -0.12430036813020706 10.397659301757812 0.6603577136993408 0.009244008921086788 0.08675326406955719 0.17215384542942047 0.04363665357232094 2.350646495819092 -0.7341103553771973 -0.13509829342365265 -0.06711237132549286 -0.008409842848777771 -0.21611256897449493 -52.7628059387207 39.81476974487305 -27.87428855895996 26.539419174194336 -25.802947998046875 -61.46525955200195 0.17216774821281433 -11.698798179626465 1.5277503728866577 0.019490452483296394 -0.04749058187007904 0.06051139160990715 0.1916605532169342 0.14154620468616486 0.17024071514606476 0.001017307979054749 -0.0005805811961181462 -0.1429251730442047 -7.739101886749268 5.49298620223999 -0.42368608713150024 -0.040552761405706406 6.115101132309064e-05 0.017040064558386803 -2.963165521621704 1.0189964771270752 -0.088548943400383 0.12992213666439056 0.029042256996035576 0.031230248510837555 -10.346979141235352 0.6926125884056091 -0.145669087767601 0.023509405553340912 -0.03957078605890274 -0.01134664285928011 -2.1957955360412598 -0.7702596783638 0.2152981460094452 -0.12499388307332993 -0.05392313376069069 0.07489623874425888 -24.27583122253418 -40.62133026123047 -19.315650939941406 -1.4337859153747559 65.50736236572266 2.690922737121582 -3.6519248485565186 -10.629965782165527 -10.231575965881348 -0.035214800387620926 -0.05740723758935928 0.16666273772716522 29.27832794189453 -39.919769287109375 21.857423782348633 1.5828107595443726 65.62014770507812 -2.6984286308288574 3.994539976119995 -10.539294242858887 13.942766189575195
0.10158559307456017 60.93178987503052 -0.035067368298769 178.45040893554688 57.01298141479492 -174.9214630126953 -5.807766437530518 16.554311752319336 -1.0998769998550415 6.781976222991943 -11.068007469177246 0.2040919065475464 -9.82530403137207 20.650436401367188 -14.801804542541504 15.189943313598633 -27.881803512573242 -26.80124855041504 0.5584878325462341 -0.28547030687332153 0.19376711547374725 -0.43513619899749756 0.06566362082958221 -0.6817580461502075 -0.2900550067424774 0.26284411549568176 -0.39766407012939453 41.589542388916016 -1.2125164270401 31.688339233398438 -27.63379669189453 -28.384143829345703 65.71461486816406 -0.6795426607131958 26.75917625427246 3.3696601390838623 -0.38605573773384094 0.5513318777084351 0.19079604744911194 0.20575924217700958 0.4950655698776245 -0.08744098246097565 -0.18558456003665924 -0.05931534618139267 0.2027318775653839 8.133256912231445 5.320783615112305 0.4346992075443268 -0.2154531031847 -0.12998440861701965 -0.08424438536167145 3.208448648452759 0.7635602355003357 0.120013527572155 0.2350722849369049 -0.11665552854537964 -0.4347497820854187 10.971273422241211 0.6168229579925537 -0.0411551333963871 0.5995329022407532 -0.05918573960661888 -0.44939830899238586 2.1219000816345215 -0.5137335658073425 0.01584167405962944 0.05218985304236412 -0.24946968257427216 0.009020267054438591 -101.09969329833984 78.32014465332031 28.21417808532715 25.6029109954834 -48.41841506958008 -100.74171447753906 23.632869720458984 -75.24079895019531 30.135278701782227 0.12039855122566223 0.001111582387238741 0.3094647526741028 0.3719519376754761 0.9035181999206543 0.5125359296798706 0.19539649784564972 0.2736199200153351 -0.35606056451797485 -8.0004301071167 4.95356559753418 -0.6058160662651062 -0.20062169432640076 0.24459321796894073 -0.14406873285770416 -2.9321649074554443 0.7087514996528625 -0.10499487072229385 -0.11879812926054001 0.08626484870910645 -0.16522333025932312 -10.397052764892578 0.7488092184066772 -0.3536403477191925 -0.4364580512046814 0.6997421979904175 0.17954351007938385 -2.1888585090637207 -0.5733839869499207 0.4869823753833771 0.3830961287021637 -0.25319668650627136 -0.07896102219820023 -61.67305374145508 -53.527626037597656 -56.50358963012695 -3.6827986240386963 73.58672332763672 4.493350028991699 0.8817766308784485 0.36558616161346436 9.668959617614746 0.008570758625864983 -0.14538323879241943 0.31735241413116455 26.35943031311035 -30.222862243652344 22.103513717651367 2.3724935054779053 75.69776916503906 -5.154580593109131 11.24674129486084 -23.78604507446289 25.0331974029541
0.8125742431730032 57.50454664230347 -0.37689339369535446 -177.95045471191406 54.11992263793945 -179.4456024169922 -3.7236392498016357 12.118743896484375 -2.9004135131835938 6.9435834884643555 -10.328365325927734 -0.5227715969085693 -10.33667278289795 18.216564178466797 -14.866848945617676 14.44902515411377 -26.621305465698242 -26.42268180847168 -0.03897448256611824 -0.2183384895324707 0.29684242606163025 -0.16025537252426147 -0.15999816358089447 -0.42904937267303467 0.043377913534641266 0.06092404946684837 -0.4345324635505676 52.38264465332031 -4.9156060218811035 24.313337326049805 -26.958871841430664 -31.51337432861328 70.27063751220703 -1.4629369974136353 26.415782928466797 3.842660903930664 -0.5485432147979736 -0.6407483816146851 -0.4273699223995209 -0.473528116941452 0.9530735611915588 0.4185641407966614 -0.292121946811676 0.14300955832004547 0.3967892825603485 7.950297832489014 4.64690637588501 1.1458388566970825 -0.1662740558385849 0.027669258415699005 0.04579833522439003 3.845181941986084 0.6611870527267456 0.5664984583854675 0.2728221118450165 -0.007991972379386425 -0.25079160928726196 10.890058517456055 0.618629515171051 0.8440923094749451 0.14325399696826935 -0.2925815284252167 -0.3613744080066681 1.3627387285232544 -0.8225569128990173 -0.2229459285736084 -0.30653437972068787 -0.3037647306919098 -1.098847508430481 -57.87535858154297 80.8557357788086 -19.37738037109375 26.03559684753418 -41.66424560546875 -89.83328247070312 19.749629974365234 -72.31123352050781 26.34619903564453 0.5025390386581421 0.6917588710784912 0.4283999502658844 0.2867890000343323 1.1648119688034058 0.3468051850795746 0.20709146559238434 0.5629980564117432 -0.6449059247970581 -6.6284966468811035 5.505215167999268 -1.0208985805511475 0.6954103708267212 0.5099018216133118 -0.46264058351516724 -3.364386796951294 0.6143293976783752 -0.879176914691925 -0.23024336993694305 0.574309766292572 0.3312079906463623 -9.003223419189453 0.47428515553474426 -1.534416913986206 -0.3240320682525635 0.2798464894294739 0.3296165466308594 -1.0634409189224243 -0.6676666140556335 0.3485089838504791 0.9606189727783203 -0.5123365521430969 -0.07966998219490051 -48.25819396972656 -47.38919448852539 -48.19611740112305 -2.7296929359436035 64.55377197265625 3.684267520904541 1.7815077304840088 -2.7543022632598877 10.809600830078125 0.044133253395557404 -0.09386910498142242 -0.548201322555542 29.48582649230957 -34.020084381103516 31.49835777282715 1.9119518995285034 76.52998352050781 -4.613654136657715 13.41001033782959 -23.799352645874023 25.532936096191406
